#Comment line ignore any data following # character 
#Hierarchical Translation and Rotation (.htr) file 
[Header]	
#Header keywords are followed by a single value 
FileType HTR		#Single word string
DataType HTRS		#Translation followed by rotation and scale data
FileVersion 1		#integer
NumSegments 64		#integer
NumFrames 3		#integer
DataFrameRate 30		#integer, data frame rate in this file
EulerRotationOrder ZYX
CalibrationUnits mm
RotationUnits Degrees
GlobalAxisofGravity Y
BoneLengthAxis Y
ScaleFactor 1.00
[SegmentNames&Hierarchy]
#CHILD	PARENT
Pinger_Root GLOBAL
Pelvis Pinger_Root
L_Hip Pelvis
R_Hip Pelvis
Rear_Leg01 Pelvis
Spine1 Pelvis
L_Leg01 L_Hip
L_Leg02 L_Leg01
L_Leg03 L_Leg02
L_Foot L_Leg03
L_Toe1_01 L_Foot
L_Toe2_01 L_Foot
L_Toe3_01 L_Foot
planeAlignerLeft L_Foot
L_Toe1_02 L_Toe1_01
L_Toe1_03 L_Toe1_02
L_Toe2_02 L_Toe2_01
L_Toe2_03 L_Toe2_02
L_Toe3_02 L_Toe3_01
L_Toe3_03 L_Toe3_02
planeLockWeightLeft planeAlignerLeft
R_Leg01 R_Hip
R_Leg02 R_Leg01
R_Leg03 R_Leg02
R_Foot R_Leg03
planeAlignerRight R_Foot
R_Toe1_01 R_Foot
R_Toe2_01 R_Foot
R_Toe3_01 R_Foot
planeLockWeightRight planeAlignerRight
R_Toe1_02 R_Toe1_01
R_Toe1_03 R_Toe1_02
R_Toe2_02 R_Toe2_01
R_Toe2_03 R_Toe2_02
R_Toe3_02 R_Toe3_01
R_Toe3_03 R_Toe3_02
Rear_Leg02 Rear_Leg01
Rear_Leg03 Rear_Leg02
Rear_Leg04 Rear_Leg03
Rear_Foot Rear_Leg04
planeAlignerCenter Rear_Foot
Rear_Toe1_01 Rear_Foot
Rear_Toe2_01 Rear_Foot
Rear_Toe3_01 Rear_Foot
planeLockWeightCenter planeAlignerCenter
Rear_Toe1_02 Rear_Toe1_01
Rear_Toe1_03 Rear_Toe1_02
Rear_Toe2_02 Rear_Toe2_01
Rear_Toe2_03 Rear_Toe2_02
Rear_Toe3_02 Rear_Toe3_01
Rear_Toe3_03 Rear_Toe3_02
Back_Bone Spine1
Head Spine1
Motor_Bone Back_Bone
Ping_Mechanism Back_Bone
BN_LookIK Head
bottomMouth Head
L_Mouth01 Head
L_mouthFront Head
mouthGun Head
R_Mouth01 Head
R_mouthFront Head
TopMouth Head
weapon_bone Head
[BasePosition]
#SegmentName Tx, Ty, Tz, Rx, Ry, Rz, BoneLength
Pinger_Root 0.000000 0.000000 0.000000 -90.000000 0.000000 0.000000 10.000000 
Pelvis 0.000000 0.000000 0.000000 0.000000 0.000000 0.000000 10.000000 
L_Hip 0.000000 0.000000 0.000000 0.000000 0.000000 0.000000 10.000000 
R_Hip 0.000000 0.000000 0.000000 0.000000 0.000000 0.000000 10.000000 
Rear_Leg01 0.000000 0.000000 0.000000 0.000000 0.000000 0.000000 10.000000 
Spine1 0.000000 0.000000 0.000000 0.000000 0.000000 0.000000 10.000000 
L_Leg01 0.000000 0.000000 0.000000 0.000000 0.000000 0.000000 10.000000 
L_Leg02 0.000000 0.000000 0.000000 0.000000 0.000000 0.000000 10.000000 
L_Leg03 0.000000 0.000000 0.000000 0.000000 0.000000 0.000000 10.000000 
L_Foot 0.000000 0.000000 0.000000 0.000000 0.000000 0.000000 10.000000 
L_Toe1_01 0.000000 0.000000 0.000000 0.000000 0.000000 0.000000 10.000000 
L_Toe2_01 0.000000 0.000000 0.000000 0.000000 0.000000 0.000000 10.000000 
L_Toe3_01 0.000000 0.000000 0.000000 0.000000 0.000000 0.000000 10.000000 
planeAlignerLeft 0.000000 0.000000 0.000000 0.000000 0.000000 0.000000 10.000000 
L_Toe1_02 0.000000 0.000000 0.000000 0.000000 0.000000 0.000000 10.000000 
L_Toe1_03 0.000000 0.000000 0.000000 0.000000 0.000000 0.000000 10.000000 
L_Toe2_02 0.000000 0.000000 0.000000 0.000000 0.000000 0.000000 10.000000 
L_Toe2_03 0.000000 0.000000 0.000000 0.000000 0.000000 0.000000 10.000000 
L_Toe3_02 0.000000 0.000000 0.000000 0.000000 0.000000 0.000000 10.000000 
L_Toe3_03 0.000000 0.000000 0.000000 0.000000 0.000000 0.000000 10.000000 
planeLockWeightLeft 0.000000 0.000000 0.000000 0.000000 0.000000 0.000000 10.000000 
R_Leg01 0.000000 0.000000 0.000000 0.000000 0.000000 0.000000 10.000000 
R_Leg02 0.000000 0.000000 0.000000 0.000000 0.000000 0.000000 10.000000 
R_Leg03 0.000000 0.000000 0.000000 0.000000 0.000000 0.000000 10.000000 
R_Foot 0.000000 0.000000 0.000000 0.000000 0.000000 0.000000 10.000000 
planeAlignerRight 0.000000 0.000000 0.000000 0.000000 0.000000 0.000000 10.000000 
R_Toe1_01 0.000000 0.000000 0.000000 0.000000 0.000000 0.000000 10.000000 
R_Toe2_01 0.000000 0.000000 0.000000 0.000000 0.000000 0.000000 10.000000 
R_Toe3_01 0.000000 0.000000 0.000000 0.000000 0.000000 0.000000 10.000000 
planeLockWeightRight 0.000000 0.000000 0.000000 0.000000 0.000000 0.000000 10.000000 
R_Toe1_02 0.000000 0.000000 0.000000 0.000000 0.000000 0.000000 10.000000 
R_Toe1_03 0.000000 0.000000 0.000000 0.000000 0.000000 0.000000 10.000000 
R_Toe2_02 0.000000 0.000000 0.000000 0.000000 0.000000 0.000000 10.000000 
R_Toe2_03 0.000000 0.000000 0.000000 0.000000 0.000000 0.000000 10.000000 
R_Toe3_02 0.000000 0.000000 0.000000 0.000000 0.000000 0.000000 10.000000 
R_Toe3_03 0.000000 0.000000 0.000000 0.000000 0.000000 0.000000 10.000000 
Rear_Leg02 0.000000 0.000000 0.000000 0.000000 0.000000 0.000000 10.000000 
Rear_Leg03 0.000000 0.000000 0.000000 0.000000 0.000000 0.000000 10.000000 
Rear_Leg04 0.000000 0.000000 0.000000 0.000000 0.000000 0.000000 10.000000 
Rear_Foot 0.000000 0.000000 0.000000 0.000000 0.000000 0.000000 10.000000 
planeAlignerCenter 0.000000 0.000000 0.000000 0.000000 0.000000 0.000000 10.000000 
Rear_Toe1_01 0.000000 0.000000 0.000000 0.000000 0.000000 0.000000 10.000000 
Rear_Toe2_01 0.000000 0.000000 0.000000 0.000000 0.000000 0.000000 10.000000 
Rear_Toe3_01 0.000000 0.000000 0.000000 0.000000 0.000000 0.000000 10.000000 
planeLockWeightCenter 0.000000 0.000000 0.000000 0.000000 0.000000 0.000000 10.000000 
Rear_Toe1_02 0.000000 0.000000 0.000000 0.000000 0.000000 0.000000 10.000000 
Rear_Toe1_03 0.000000 0.000000 0.000000 0.000000 0.000000 0.000000 10.000000 
Rear_Toe2_02 0.000000 0.000000 0.000000 0.000000 0.000000 0.000000 10.000000 
Rear_Toe2_03 0.000000 0.000000 0.000000 0.000000 0.000000 0.000000 10.000000 
Rear_Toe3_02 0.000000 0.000000 0.000000 0.000000 0.000000 0.000000 10.000000 
Rear_Toe3_03 0.000000 0.000000 0.000000 0.000000 0.000000 0.000000 10.000000 
Back_Bone 0.000000 0.000000 0.000000 0.000000 0.000000 0.000000 10.000000 
Head 0.000000 0.000000 0.000000 0.000000 0.000000 0.000000 10.000000 
Motor_Bone 0.000000 0.000000 0.000000 0.000000 0.000000 0.000000 10.000000 
Ping_Mechanism 0.000000 0.000000 0.000000 0.000000 0.000000 0.000000 10.000000 
BN_LookIK 0.000000 0.000000 0.000000 0.000000 0.000000 0.000000 10.000000 
bottomMouth 0.000000 0.000000 0.000000 0.000000 0.000000 0.000000 10.000000 
L_Mouth01 0.000000 0.000000 0.000000 0.000000 0.000000 0.000000 10.000000 
L_mouthFront 0.000000 0.000000 0.000000 0.000000 0.000000 0.000000 10.000000 
mouthGun 0.000000 0.000000 0.000000 0.000000 0.000000 0.000000 10.000000 
R_Mouth01 0.000000 0.000000 0.000000 0.000000 0.000000 0.000000 10.000000 
R_mouthFront 0.000000 0.000000 0.000000 0.000000 0.000000 0.000000 10.000000 
TopMouth 0.000000 0.000000 0.000000 0.000000 0.000000 0.000000 10.000000 
weapon_bone 0.000000 0.000000 0.000000 0.000000 0.000000 0.000000 10.000000 
#Beginning of Data. Separated by tabs
#Fr	Tx	Ty	Tz	Rx	Ry	Rz	SF
[Pinger_Root]
570 0.000000 -5820.040527 0.000000 -0.000075 -0.000000 -0.000020 5820.041016
571 0.000000 -5821.631836 0.000000 -0.000075 -0.000000 -0.000020 5821.631836
572 0.000000 -5823.223145 0.000000 -0.000075 -0.000000 -0.000020 5823.223145
[Pelvis]
570 1932.010620 19949.695313 6935.693848 -24.536198 -77.720978 -73.872040 21209.123047
571 1908.872559 19907.023438 6927.208496 -19.815748 -76.961517 -79.610435 21164.111328
572 1854.864380 19876.375000 6928.897949 -12.747229 -76.453751 -87.942482 21131.029297
[L_Hip]
570 5.766392 125.831482 872.656799 51.096642 -46.514915 -119.285225 881.701050
571 5.766392 125.831482 872.656799 55.508015 -49.435154 -124.412132 881.701050
572 5.766392 125.831482 872.656799 66.283760 -54.586792 -135.423340 881.701050
[R_Hip]
570 5.765438 125.836372 -872.654907 11.462785 45.069050 92.448692 881.699829
571 5.765438 125.836372 -872.654907 11.409058 48.920769 92.689430 881.699829
572 5.765438 125.836372 -872.654907 14.761526 54.824497 97.100555 881.699829
[Rear_Leg01]
570 -192.298416 -925.602966 -0.001907 163.848297 12.654765 -166.661346 945.367432
571 -192.298416 -925.602966 -0.001907 162.716187 11.135026 -166.093307 945.367432
572 -192.298416 -925.602966 -0.001907 161.730194 11.885660 -164.633194 945.367432
[Spine1]
570 290.604584 5.007505 0.000477 3.847153 -8.767751 18.114985 290.647736
571 290.604584 5.007505 0.000477 4.194522 -10.094974 18.609989 290.647736
572 290.604584 5.007505 0.000477 4.712428 -11.325457 19.921110 290.647736
[L_Leg01]
570 761.932007 -0.002384 -0.069261 47.980381 -32.370663 -27.031237 761.932068
571 761.932007 -0.002384 -0.069261 45.732250 -29.394224 -25.735487 761.932068
572 761.932007 -0.002384 -0.069261 43.891666 -24.954248 -24.837673 761.932068
[L_Leg02]
570 1441.140503 -0.000954 -0.000715 -1.456512 0.612175 -99.328270 1441.140503
571 1441.140503 -0.000954 -0.000715 -1.884347 0.716526 -104.924294 1441.140503
572 1441.140503 -0.000954 -0.000715 -2.574305 0.949226 -109.806396 1441.140503
[L_Leg03]
570 1686.963989 -0.000715 -0.000954 0.047113 -0.013505 97.230545 1686.963989
571 1686.963989 -0.000715 -0.000954 0.036532 -0.010491 100.786003 1686.963989
572 1686.963989 -0.000715 -0.000954 0.029450 -0.010123 101.983177 1686.963989
[L_Foot]
570 3041.570068 -30.715107 11.297464 -41.493038 53.631992 21.358467 3041.746094
571 3041.570068 -30.715107 11.297464 -43.111858 54.181526 19.757177 3041.746094
572 3041.570068 -30.715107 11.297464 -46.902931 53.931953 18.847641 3041.746094
[L_Toe1_01]
570 -188.216690 -224.732346 -21.137953 93.389038 -5.019216 -167.986435 293.899567
571 -188.216690 -224.732346 -21.137953 92.719749 -2.408471 -163.093872 293.899567
572 -188.216690 -224.732346 -21.137953 91.065414 -0.399629 -161.129486 293.899567
[L_Toe2_01]
570 200.746536 -219.926590 148.838394 -89.224823 -21.985426 -58.381699 332.896027
571 200.746536 -219.926590 148.838394 -89.944565 -17.265320 -59.200432 332.896027
572 200.746536 -219.926590 148.838394 -89.273705 -11.711134 -64.850784 332.896027
[L_Toe3_01]
570 188.832520 -219.859131 -191.078659 -101.606949 13.120262 -74.772331 347.140900
571 188.832520 -219.859131 -191.078659 -101.753540 13.714561 -76.123383 347.140900
572 188.832520 -219.859131 -191.078659 -102.536751 14.625839 -78.713005 347.140900
[planeAlignerLeft]
570 0.812531 -811.448792 -0.314951 0.000000 -90.000000 -90.001900 811.449280
571 0.812531 -811.448792 -0.314951 0.000000 -90.000000 -90.001900 811.449280
572 0.812531 -811.448792 -0.314951 0.000000 -90.000000 -90.001900 811.449280
[L_Toe1_02]
570 413.761139 0.000477 0.000000 0.001385 -25.840990 0.001385 413.761139
571 413.761139 0.000477 0.000000 0.001388 -25.471418 0.001388 413.761139
572 413.761139 0.000477 0.000000 0.001406 -23.258678 0.001406 413.761139
[L_Toe1_03]
570 464.317322 0.000358 -0.000089 0.004378 58.900089 0.004378 464.317322
571 464.317322 0.000358 -0.000089 0.005085 63.309753 0.005085 464.317322
572 464.317322 0.000358 -0.000089 0.010520 77.189133 0.010520 464.317322
[L_Toe2_02]
570 342.235809 -0.000477 0.000238 -0.002369 -64.556007 -0.002369 342.235809
571 342.235809 -0.000477 0.000238 -0.002494 -47.361034 -0.002494 342.235809
572 342.235809 -0.000477 0.000238 -0.002416 -58.179935 -0.002416 342.235809
[L_Toe2_03]
570 420.210846 -0.000715 0.000000 -0.001300 68.673721 -0.004846 420.210846
571 420.210846 -0.000715 0.000000 0.006787 44.132725 -0.000794 420.210846
572 420.210846 -0.000715 0.000000 0.003869 58.362293 -0.001632 420.210846
[L_Toe3_02]
570 329.270111 0.000954 0.000000 0.001188 -72.302406 0.001188 329.270111
571 329.270111 0.000954 0.000000 -0.002442 -52.272198 -0.002442 329.270111
572 329.270111 0.000954 0.000000 -0.002458 -51.828625 -0.002458 329.270111
[L_Toe3_03]
570 439.137451 -0.001907 0.000954 0.011391 78.240761 0.011403 439.137451
571 439.137451 -0.001907 0.000954 0.006933 46.740097 -0.000564 439.137451
572 439.137451 -0.001907 0.000954 0.006914 46.184826 -0.000623 439.137451
[planeLockWeightLeft]
570 -0.000954 0.000238 -0.000305 -0.011826 -0.004376 0.005620 0.001029
571 -0.000954 0.000238 -0.000305 -0.011826 -0.004376 0.005620 0.001029
572 -0.000954 0.000238 -0.000305 -0.011826 -0.004376 0.005620 0.001029
[R_Leg01]
570 761.455627 -0.001907 -0.000358 129.635773 -2.577886 53.765274 761.455688
571 761.455627 -0.001907 -0.000358 125.451973 -5.401800 54.748299 761.455688
572 761.455627 -0.001907 -0.000358 118.935532 -10.330420 54.322151 761.455688
[R_Leg02]
570 1441.140625 0.000000 -0.000238 -0.877878 -0.087099 -105.580391 1441.140625
571 1441.140625 0.000000 -0.000238 -0.860642 -0.081419 -105.133873 1441.140625
572 1441.140625 0.000000 -0.000238 -0.843601 -0.075885 -104.694908 1441.140625
[R_Leg03]
570 1686.963989 0.000954 0.001431 0.075801 -0.043486 131.281296 1686.963989
571 1686.963989 0.000954 0.001431 0.080203 -0.041653 131.542526 1686.963989
572 1686.963989 0.000954 0.001431 0.075889 -0.043382 131.110748 1686.963989
[R_Foot]
570 3041.560059 -30.531288 -11.204481 -12.791755 -24.513498 46.165726 3041.734131
571 3041.560059 -30.531288 -11.204481 -12.755522 -24.443169 45.148304 3041.734131
572 3041.560059 -30.531288 -11.204481 -12.723982 -24.277220 43.346794 3041.734131
[planeAlignerRight]
570 -0.635147 -812.270569 -0.364304 0.000000 -89.960434 -90.005180 812.270874
571 -0.635147 -812.270569 -0.364304 0.000000 -89.960434 -90.005180 812.270874
572 -0.635147 -812.270569 -0.364304 0.000000 -89.960434 -90.005180 812.270874
[R_Toe1_01]
570 -188.383347 -224.864899 21.052242 74.101311 0.054959 -177.014938 294.101532
571 -188.383347 -224.864899 21.052242 75.029854 -0.172377 -177.048096 294.101532
572 -188.383347 -224.864899 21.052242 76.086884 -0.429376 -177.085190 294.101532
[R_Toe2_01]
570 200.637817 -220.002121 -148.787384 -87.933754 37.477737 -53.511330 332.857574
571 200.637817 -220.002121 -148.787384 -88.640114 36.430138 -54.012356 332.857574
572 200.637817 -220.002121 -148.787384 -89.326271 35.377171 -54.491180 332.857574
[R_Toe3_01]
570 188.606735 -220.092957 191.126343 -72.509804 -6.385291 -70.040115 347.192566
571 188.606735 -220.092957 191.126343 -72.776230 -7.593306 -69.809723 347.192566
572 188.606735 -220.092957 191.126343 -73.048531 -8.800905 -69.572792 347.192566
[planeLockWeightRight]
570 -0.000477 0.000000 0.000000 -0.011823 -0.004379 -0.000027 0.000477
571 -0.000477 0.000000 0.000000 -0.011823 -0.004379 -0.000027 0.000477
572 -0.000477 0.000000 0.000000 -0.011823 -0.004379 -0.000027 0.000477
[R_Toe1_02]
570 413.762085 0.000477 -0.000119 0.001398 -24.216114 0.001398 413.762085
571 413.762085 0.000477 -0.000119 0.001398 -24.216505 0.001398 413.762085
572 413.762085 0.000477 -0.000119 0.001398 -24.216892 0.001398 413.762085
[R_Toe1_03]
570 464.317810 0.000000 0.001088 0.007573 72.170189 0.007573 464.317810
571 464.317810 0.000000 0.001088 0.007595 72.222244 0.007595 464.317810
572 464.317810 0.000000 0.001088 0.007617 72.274300 0.007617 464.317810
[R_Toe2_02]
570 342.234741 -0.000954 0.000238 0.001191 -70.310608 0.001191 342.234741
571 342.234741 -0.000954 0.000238 0.001191 -70.402962 0.001191 342.234741
572 342.234741 -0.000954 0.000238 0.001191 -70.495316 0.001191 342.234741
[R_Toe2_03]
570 420.210846 0.000715 -0.000268 0.013792 80.237007 0.013792 420.210846
571 420.210846 0.000715 -0.000268 0.014079 80.436775 0.014079 420.210846
572 420.210846 0.000715 -0.000268 0.014379 80.636467 0.014379 420.210846
[R_Toe3_02]
570 329.270355 -0.000477 -0.000954 0.001180 -77.843102 0.001180 329.270355
571 329.270355 -0.000477 -0.000954 0.001180 -77.954491 0.001180 329.270355
572 329.270355 -0.000477 -0.000954 0.001180 -78.065895 0.001180 329.270355
[R_Toe3_03]
570 439.137939 0.000238 0.001431 -179.973389 87.677544 -179.969879 439.137939
571 439.137939 0.000238 0.001431 -179.976730 87.367828 -179.973236 439.137939
572 439.137939 0.000238 0.001431 -179.979370 87.057686 -179.975876 439.137939
[Rear_Leg02]
570 1162.777710 -0.029802 0.005960 3.545870 -4.788362 -149.768860 1162.777710
571 1162.777710 -0.029802 0.005960 2.428926 -5.643157 -136.048019 1162.777710
572 1162.777710 -0.029802 0.005960 3.038460 -6.742814 -137.230698 1162.777710
[Rear_Leg03]
570 607.192505 -0.013351 -0.073195 0.010281 -0.005519 72.815224 607.192505
571 607.192505 -0.013351 -0.073195 0.010472 -0.005148 68.712975 607.192505
572 607.192505 -0.013351 -0.073195 0.010455 -0.005181 69.074898 607.192505
[Rear_Leg04]
570 995.874512 -0.020504 -0.011921 -0.041704 -0.015204 77.324890 995.874573
571 995.874512 -0.020504 -0.011921 -0.040236 -0.018712 67.480034 995.874573
572 995.874512 -0.020504 -0.011921 -0.040366 -0.018427 68.288597 995.874573
[Rear_Foot]
570 3096.176270 -0.067472 -0.041425 -44.906620 82.951736 145.652252 3096.176270
571 3096.176270 -0.067472 -0.041425 -49.837334 83.070686 138.576828 3096.176270
572 3096.176270 -0.067472 -0.041425 -66.926239 83.064270 120.958870 3096.176270
[planeAlignerCenter]
570 0.350077 0.966311 -838.790894 0.000009 0.000003 -179.999985 838.791565
571 0.350077 0.966311 -838.790894 0.000009 0.000003 -179.999985 838.791565
572 0.350077 0.966311 -838.790894 0.000009 0.000003 -179.999985 838.791565
[Rear_Toe1_01]
570 0.653352 83.966492 -371.173737 9.118844 50.602592 84.979797 380.553192
571 0.653352 83.966492 -371.173737 15.094482 36.918301 92.052383 380.553192
572 0.653352 83.966492 -371.173737 13.905037 36.085278 90.817337 380.553192
[Rear_Toe2_01]
570 178.200760 -294.826019 -362.060547 -11.863149 58.412422 -78.771790 499.765686
571 178.200760 -294.826019 -362.060547 -20.884266 32.860363 -90.800232 499.765686
572 178.200760 -294.826019 -362.060547 -19.948332 31.614201 -90.313972 499.765686
[Rear_Toe3_01]
570 -153.359680 -308.780914 -362.060852 -12.557957 46.004242 -136.792328 499.952881
571 -153.359680 -308.780914 -362.060852 -5.429238 20.778515 -132.803543 499.952881
572 -153.359680 -308.780914 -362.060852 -4.550114 20.247770 -132.107315 499.952881
[planeLockWeightCenter]
570 -0.000062 0.000238 0.000000 -0.011814 -0.004373 -0.000015 0.000246
571 -0.000062 0.000238 0.000000 -0.011814 -0.004373 -0.000015 0.000246
572 -0.000062 0.000238 0.000000 -0.011814 -0.004373 -0.000015 0.000246
[Rear_Toe1_02]
570 379.707825 0.194073 0.000477 0.001327 -33.342701 0.001353 379.707855
571 379.707825 0.194073 0.000477 0.001333 -33.428230 0.001333 379.707855
572 379.707825 0.194073 0.000477 0.001332 -33.510841 0.001332 379.707855
[Rear_Toe1_03]
570 500.129700 0.165701 0.000119 -0.004413 64.888550 -0.000818 500.129761
571 500.129700 0.165701 0.000119 -0.004422 64.760887 -0.000839 500.129761
572 500.129700 0.165701 0.000119 -0.004841 68.356514 -0.001281 500.129761
[Rear_Toe2_02]
570 340.494507 0.000238 -0.000954 0.001174 -85.735199 0.001174 340.494507
571 340.494507 0.000238 -0.000954 0.001189 -71.420372 0.001189 340.494507
572 340.494507 0.000238 -0.000954 0.001191 -70.196869 0.001191 340.494507
[Rear_Toe2_03]
570 433.103577 0.000000 0.000238 179.987457 79.328766 179.987442 433.103546
571 433.103577 0.000000 0.000238 0.007626 72.291550 0.007626 433.103546
572 433.103577 0.000000 0.000238 0.006865 70.312256 0.006865 433.103546
[Rear_Toe3_02]
570 340.494141 -0.000358 -0.000477 0.000000 -89.467705 0.002355 340.494171
571 340.494141 -0.000358 -0.000477 -0.002389 -60.682613 -0.002389 340.494171
572 340.494141 -0.000358 -0.000477 -0.002407 -59.568142 -0.002407 340.494171
[Rear_Toe3_03]
570 433.103577 0.001431 -0.000238 -179.998734 68.288208 -179.995178 433.103546
571 433.103577 0.001431 -0.000238 -0.000216 57.049381 -0.003838 433.103546
572 433.103577 0.001431 -0.000238 -0.000110 55.544067 -0.003771 433.103546
[Back_Bone]
570 1312.175781 -701.934692 0.000954 1.457903 0.005879 -85.603523 1488.125488
571 1312.175781 -701.934692 0.000954 1.454722 0.006573 -85.602623 1488.125488
572 1312.175781 -701.934692 0.000954 1.451541 0.007267 -85.601746 1488.125488
[Head]
570 1406.159424 809.709290 0.001431 -0.008107 -1.460152 7.757659 1622.625488
571 1406.159424 809.709290 0.001431 -0.008100 -1.460152 7.757106 1622.625488
572 1406.159424 809.709290 0.001431 -0.008093 -1.460152 7.756557 1622.625488
[Motor_Bone]
570 1158.364380 -417.834747 0.000477 -0.095365 0.066393 -105.916275 1231.419434
571 1158.364380 -417.834747 0.000477 -0.097503 2.275279 -105.782478 1231.419434
572 1158.364380 -417.834747 0.000477 -0.094478 4.482270 -105.648544 1231.419434
[Ping_Mechanism]
570 1247.524658 -445.228485 43.974987 0.000103 -0.000053 82.120995 1325.322510
571 1243.274170 -442.332062 49.247688 0.000103 -0.000053 82.120995 1320.535400
572 1235.249268 -437.897766 53.079712 0.000103 -0.000053 82.120995 1311.645020
[BN_LookIK]
570 193.241119 1380.371704 -0.002861 0.000000 89.965736 -31.038179 1393.832153
571 193.241119 1380.371704 -0.002861 0.000000 89.965736 -31.038179 1393.832153
572 193.241119 1380.371704 -0.002861 0.000000 89.965736 -31.038179 1393.832153
[bottomMouth]
570 -435.092926 615.759399 -0.000954 -0.000022 0.000016 73.527184 753.966492
571 -435.092926 615.759399 -0.000954 -0.000022 0.000016 73.527184 753.966492
572 -435.092926 615.759399 -0.000954 -0.000022 0.000016 73.527184 753.966492
[L_Mouth01]
570 554.440979 7.658243 838.222046 150.204178 23.759130 109.605339 1005.027161
571 554.440979 7.658243 838.222046 150.204178 23.759130 109.605339 1005.027161
572 554.440979 7.658243 838.222046 150.204178 23.759130 109.605339 1005.027161
[L_mouthFront]
570 551.629089 934.514771 339.150421 0.000081 2.804060 79.119301 1136.941284
571 551.629089 934.514771 339.150421 0.000081 2.804060 79.119301 1136.941284
572 551.629089 934.514771 339.150421 0.000081 2.804060 79.119301 1136.941284
[mouthGun]
570 55.332661 1627.420898 0.000000 0.000023 0.000009 -11.038128 1628.361328
571 55.332661 1627.420898 0.000000 0.000023 0.000009 -11.038128 1628.361328
572 55.332661 1627.420898 0.000000 0.000023 0.000009 -11.038128 1628.361328
[R_Mouth01]
570 554.442383 7.659197 -838.223938 29.795891 -23.759109 109.605331 1005.029541
571 554.442383 7.659197 -838.223938 29.795891 -23.759109 109.605331 1005.029541
572 554.442383 7.659197 -838.223938 29.795891 -23.759109 109.605331 1005.029541
[R_mouthFront]
570 551.629089 934.514282 -339.151367 0.000029 -2.803930 79.119133 1136.941162
571 551.629089 934.514282 -339.151367 0.000029 -2.803930 79.119133 1136.941162
572 551.629089 934.514282 -339.151367 0.000029 -2.803930 79.119133 1136.941162
[TopMouth]
570 461.269867 -56.106091 -0.008583 -0.000059 -0.000268 92.025169 464.669525
571 461.269867 -56.106091 -0.008583 -0.000059 -0.000268 92.025169 464.669525
572 461.269867 -56.106091 -0.008583 -0.000059 -0.000268 92.025169 464.669525
[weapon_bone]
570 -987.239868 1448.372803 0.001431 0.000000 89.965736 -31.038221 1752.833740
571 -987.239868 1448.372803 0.001431 0.000000 89.965736 -31.038221 1752.833740
572 -987.239868 1448.372803 0.001431 0.000000 89.965736 -31.038221 1752.833740
